<svg xmlns="http://www.w3.org/2000/svg" version="1.1" xmlns:xlink="http://www.w3.org/1999/xlink" xmlns:svgjs="http://svgjs.dev/svgjs" width="2000" height="378" viewBox="0 0 2000 378"><g transform="matrix(1,0,0,1,-1.2121212121212466,3.0636187846612017)"><svg viewBox="0 0 396 75" data-background-color="#fafafa" preserveAspectRatio="xMidYMid meet" height="378" width="2000" xmlns="http://www.w3.org/2000/svg" xmlns:xlink="http://www.w3.org/1999/xlink"><g id="tight-bounds" transform="matrix(1,0,0,1,0.2400000000000091,0.2419727854780831)"><svg viewBox="0 0 395.52 74.51605442904385" height="74.51605442904385" width="395.52"><g><svg viewBox="0 0 516.9672592699837 97.39674461416801" height="74.51605442904385" width="395.52"><g><rect width="5.575024083292784" height="62.12946425041185" x="410.1143038829654" y="17.633640181878082" fill="#130912" opacity="1" stroke-width="0" stroke="transparent" fill-opacity="1" class="rect-qz-0" data-fill-palette-color="primary" rx="1%" id="qz-0" data-palette-color="#130912"></rect></g><g transform="matrix(1,0,0,1,0,17.78819108797363)"><svg viewBox="0 0 395.52 61.820362438220755" height="61.820362438220755" width="395.52"><g id="textblocktransform"><svg viewBox="0 0 395.52 61.820362438220755" height="61.820362438220755" width="395.52" id="textblock"><g><svg viewBox="0 0 395.52 61.820362438220755" height="61.820362438220755" width="395.52"><g transform="matrix(1,0,0,1,0,0)"><svg width="395.52" viewBox="-0.45 -37.1 242.68 37.95" height="61.820362438220755" data-palette-color="#130912"><g class="wordmark-text-0" data-fill-palette-color="primary" id="text-0"><path d="M12.9 0.85Q12.15-1.65 9.53-10.15 6.9-18.65 4.25-26.8L4.25-26.8Q3.8-28.25 2.7-28.93 1.6-29.6-0.35-29.65L-0.35-29.65-0.45-29.85-0.1-32Q0.55-32 2.33-31.93 4.1-31.85 5.7-31.85L5.7-31.85Q7.35-31.85 9.88-32.08 12.4-32.3 13.2-32.4L13.2-32.4 13.35-32.05 13.15-30.1Q10.45-29.9 9.58-29.5 8.7-29.1 8.7-28L8.7-28Q8.7-27 11.35-17.63 14-8.25 15-4.85L15-4.85 15.45-4.85Q23.75-26.25 23.75-27.85L23.75-27.85Q23.75-28.9 22.95-29.38 22.15-29.85 20.3-29.85L20.3-29.85 17.7-29.85 17.6-30.05 17.9-32.2Q18.55-32.15 20.78-32 23-31.85 25.05-31.85L25.05-31.85Q26.9-31.85 28.48-31.9 30.05-31.95 30.55-32L30.55-32 30.15-29.65Q28.6-29.6 28-29.15 27.4-28.7 26.85-27.25L26.85-27.25 16.1-0.25 12.9 0.85ZM32.7 0.6L32.9-1.45Q34.4-1.85 35.05-2.63 35.7-3.4 35.7-4.7L35.7-4.7 35.7-17.4Q35.7-20.1 33.85-20.1L33.85-20.1Q33.5-20.1 33.1-20.03 32.7-19.95 32.6-19.9L32.6-19.9 32.8-21.75Q34.9-22.05 37.12-22.55 39.35-23.05 40-23.2L40-23.2 40.25-22.6Q39.8-21.55 39.45-16.18 39.1-10.8 39.1-4.9L39.1-4.9Q39.1-3.45 39.5-2.78 39.9-2.1 40.85-2.1L40.85-2.1Q41.4-2.1 41.9-2.15 42.4-2.2 42.6-2.2L42.6-2.2 42.7-2 42.3 0.15Q41.85 0.1 40.6 0.05 39.35 0 37.85 0L37.85 0Q36.55 0 34.87 0.25 33.2 0.5 32.7 0.6L32.7 0.6ZM37.1-29.1Q35.95-29.1 35.3-29.85 34.65-30.6 34.65-31.65L34.65-31.65Q34.65-32.85 35.5-33.73 36.35-34.6 37.6-34.6L37.6-34.6Q38.75-34.6 39.4-33.85 40.05-33.1 40.05-32.05L40.05-32.05Q40.05-30.85 39.2-29.98 38.35-29.1 37.1-29.1L37.1-29.1ZM46.39-1.15L59.99-20.7 53.74-20.4Q51.3-20.25 50.37-19.33 49.45-18.4 49.2-15.9L49.2-15.9 47.24-15.6Q47.34-16.3 47.55-18.57 47.74-20.85 47.8-22.85L47.8-22.85 48.09-23.1 54.49-22.7 65-22.45 65.39-21.4Q60.8-15.5 56.95-10.13 53.09-4.75 51.09-1.75L51.09-1.75 58.49-2.2Q60.49-2.35 61.59-3.78 62.7-5.2 63.2-8.3L63.2-8.3 65.19-8.55Q65.14-8.2 64.94-6.95 64.75-5.7 64.55-3.9 64.34-2.1 64.34-0.5L64.34-0.5 63.55 0.3 49.49-0.15 46.89 0.1 46.39-1.15ZM72.09-17.35Q72.09-20.05 70.24-20.05L70.24-20.05Q69.89-20.05 69.49-19.98 69.09-19.9 68.99-19.85L68.99-19.85 69.19-21.7Q71.14-22 73.39-22.53 75.64-23.05 76.34-23.2L76.34-23.2 76.64-22.6Q76.14-21.3 75.74-16.7 75.34-12.1 75.34-7.75L75.34-7.75Q75.34-2.85 79.34-2.85L79.34-2.85Q80.84-2.85 82.14-3.58 83.44-4.3 85.39-5.7L85.39-5.7 85.39-17.3Q85.39-18.8 84.84-19.4 84.29-20 82.89-20L82.89-20 81.69-19.95 81.89-21.75Q84.09-22.05 86.49-22.55 88.89-23.05 89.59-23.2L89.59-23.2 89.89-22.6Q89.44-21.45 89.12-16.35 88.79-11.25 88.79-5.25L88.79-5.25Q88.79-4.15 89.34-3.55 89.89-2.95 90.84-2.95L90.84-2.95Q91.54-2.95 92.22-3.23 92.89-3.5 93.32-3.8 93.74-4.1 93.84-4.2L93.84-4.2 94.54-3.4Q94.34-3.1 93.62-2.15 92.89-1.2 91.92-0.3 90.94 0.6 90.19 0.6L90.19 0.6Q86.14 0.6 85.74-3.45L85.74-3.45 85.49-3.55Q83.09-1.7 81.17-0.55 79.24 0.6 78.54 0.6L78.54 0.6Q75.34 0.6 73.62-0.9 71.89-2.4 71.89-5.2L71.89-5.2 72.09-17.35ZM113.24 0.6Q109.19 0.6 108.79-3.45L108.79-3.45 108.59-3.5Q106.79-1.7 105.31-0.65 103.84 0.4 103.09 0.4L103.09 0.4Q100.29 0.4 98.49-1.35 96.69-3.1 96.69-5.8L96.69-5.8Q96.69-7.25 97.42-8.35 98.14-9.45 99.34-9.8L99.34-9.8 108.84-12.4 108.89-14.6Q108.89-17.1 107.74-18.5 106.59-19.9 104.49-19.9L104.49-19.9Q103.09-19.9 101.54-19.25 99.99-18.6 98.49-17.4L98.49-17.4 98.24-17.55 97.64-19.7Q99.99-21.05 102.36-22.13 104.74-23.2 105.79-23.2L105.79-23.2Q109.04-23.2 110.89-21.5 112.74-19.8 112.74-16.75L112.74-16.75Q112.74-15.65 112.39-12.25L112.39-12.25Q111.84-6.75 111.84-5.25L111.84-5.25Q111.84-4.15 112.39-3.55 112.94-2.95 113.89-2.95L113.89-2.95Q114.69-2.95 115.54-3.33 116.39-3.7 116.89-4.2L116.89-4.2 117.59-3.4Q116.84-2.15 115.67-0.98 114.49 0.2 113.24 0.6L113.24 0.6ZM103.94-3Q104.89-3 106.17-3.68 107.44-4.35 108.49-5.4L108.49-5.4 108.74-10.5 101.94-8.45Q100.49-8 100.49-6.35L100.49-6.35Q100.49-4.9 101.47-3.95 102.44-3 103.94-3L103.94-3ZM119.29 0.6L119.49-1.45Q120.89-1.85 121.46-2.45 122.04-3.05 122.16-3.9 122.29-4.75 122.29-6.75L122.29-6.75 122.29-31.3Q122.29-32.85 121.94-33.4 121.59-33.95 120.49-33.95L120.49-33.95Q120.24-33.95 119.34-33.85L119.34-33.85 119.19-33.95 119.39-35.65Q123.59-36.25 126.79-37.1L126.79-37.1 127.09-36.45Q126.54-35.6 126.11-25.75 125.69-15.9 125.69-4.9L125.69-4.9Q125.69-3.4 126.09-2.75 126.49-2.1 127.44-2.1L127.44-2.1 129.19-2.2 129.29-2 128.89 0.15Q125.59 0 124.44 0L124.44 0Q122.74 0 119.29 0.6L119.29 0.6ZM132.33 0.6L132.53-1.45Q134.03-1.85 134.69-2.63 135.33-3.4 135.33-4.7L135.33-4.7 135.33-17.4Q135.33-20.1 133.48-20.1L133.48-20.1Q133.13-20.1 132.73-20.03 132.33-19.95 132.23-19.9L132.23-19.9 132.44-21.75Q134.53-22.05 136.76-22.55 138.98-23.05 139.63-23.2L139.63-23.2 139.88-22.6Q139.44-21.55 139.08-16.18 138.73-10.8 138.73-4.9L138.73-4.9Q138.73-3.45 139.13-2.78 139.53-2.1 140.48-2.1L140.48-2.1Q141.03-2.1 141.53-2.15 142.03-2.2 142.23-2.2L142.23-2.2 142.33-2 141.94 0.15Q141.48 0.1 140.23 0.05 138.98 0 137.48 0L137.48 0Q136.19 0 134.51 0.25 132.83 0.5 132.33 0.6L132.33 0.6ZM136.73-29.1Q135.58-29.1 134.94-29.85 134.28-30.6 134.28-31.65L134.28-31.65Q134.28-32.85 135.13-33.73 135.98-34.6 137.23-34.6L137.23-34.6Q138.38-34.6 139.03-33.85 139.69-33.1 139.69-32.05L139.69-32.05Q139.69-30.85 138.83-29.98 137.98-29.1 136.73-29.1L136.73-29.1ZM146.03-1.15L159.63-20.7 153.38-20.4Q150.93-20.25 150.01-19.33 149.08-18.4 148.83-15.9L148.83-15.9 146.88-15.6Q146.98-16.3 147.18-18.57 147.38-20.85 147.43-22.85L147.43-22.85 147.73-23.1 154.13-22.7 164.63-22.45 165.03-21.4Q160.43-15.5 156.58-10.13 152.73-4.75 150.73-1.75L150.73-1.75 158.13-2.2Q160.13-2.35 161.23-3.78 162.33-5.2 162.83-8.3L162.83-8.3 164.83-8.55Q164.78-8.2 164.58-6.95 164.38-5.7 164.18-3.9 163.98-2.1 163.98-0.5L163.98-0.5 163.18 0.3 149.13-0.15 146.53 0.1 146.03-1.15ZM179.53 0.6Q176.43 0.6 174.03-0.78 171.63-2.15 170.33-4.67 169.03-7.2 169.03-10.45L169.03-10.45Q169.03-13.8 170.55-16.75 172.08-19.7 174.63-21.45 177.18-23.2 180.08-23.2L180.08-23.2Q183.73-23.2 185.63-21.35 187.53-19.5 187.53-15.95L187.53-15.95Q187.53-14.5 187.23-13.5L187.23-13.5 186.58-12.9 172.78-12.9Q172.73-8.05 174.7-5.43 176.68-2.8 180.23-2.8L180.23-2.8Q183.03-2.8 186.33-4.35L186.33-4.35 186.63-4.25 187.18-2.8Q185.38-1.5 183.2-0.45 181.03 0.6 179.53 0.6L179.53 0.6ZM172.98-14.75L182.03-15.2Q182.78-15.3 183.03-15.55 183.28-15.8 183.28-16.55L183.28-16.55Q183.28-18.55 182.2-19.6 181.13-20.65 179.13-20.65L179.13-20.65Q176.78-20.65 175.1-19.05 173.43-17.45 172.98-14.75L172.98-14.75Z" fill="#130912" data-fill-palette-color="primary"></path><path d="M214.03 0.5L213.88 0.15 214.08-1.8Q216.63-2 217.58-2.4 218.53-2.8 218.53-3.7L218.53-3.7Q218.53-4.7 218.08-6.1L218.08-6.1 216.43-11.55Q215.23-11.6 211.23-11.6L211.23-11.6Q208.83-11.6 205.78-11.2L205.78-11.2 203.93-6Q203.48-4.65 203.48-4.05L203.48-4.05Q203.48-2.95 204.18-2.48 204.88-2 206.48-2L206.48-2 209.33-2 209.43-1.8 209.13 0.35Q208.53 0.3 206.38 0.15 204.23 0 202.18 0L202.18 0Q200.33 0 198.75 0.05 197.18 0.1 196.68 0.15L196.68 0.15 197.08-2.2Q198.48-2.35 199.33-3.18 200.18-4 200.98-6.05L200.98-6.05 210.73-31.6 213.88-32.45 214.28-32.45Q214.58-31.25 215.8-26.9 217.03-22.55 218.8-16.6 220.58-10.65 222.23-5.65L222.23-5.65Q222.83-3.8 223.83-3.05 224.83-2.3 227.03-2.1L227.03-2.1 227.13-1.9 226.78 0.15Q226.18 0.15 224.6 0.08 223.03 0 221.48 0L221.48 0Q219.08 0 216.85 0.2 214.63 0.4 214.03 0.5L214.03 0.5ZM206.68-13.65L211.08-13.65Q212.88-13.65 215.73-13.9L215.73-13.9 211.78-27 211.43-27 206.68-13.65ZM229.43 0.6L229.73-1.7Q232.08-2.15 232.9-3.03 233.73-3.9 233.73-6L233.73-6 233.78-27Q233.78-28.6 233.4-29.15 233.03-29.7 231.93-29.7L231.93-29.7 229.83-29.6 229.73-29.8 230.08-32Q230.88-32 231.33-31.95L231.33-31.95 236.03-31.85Q238.28-31.85 241.78-32.3L241.78-32.3 241.58-30.05Q239.53-29.8 238.8-29.23 238.08-28.65 237.98-27.2L237.98-27.2Q237.68-21.35 237.48-14.98 237.28-8.6 237.28-5.6L237.28-5.6Q237.28-3.55 237.73-2.88 238.18-2.2 239.48-2.2L239.48-2.2Q240.33-2.2 242.13-2.35L242.13-2.35 242.23-2.15 241.78 0.15Q241.08 0.15 240.68 0.1L240.68 0.1Q237.18 0 235.23 0L235.23 0Q232.78 0 229.43 0.6L229.43 0.6Z" fill="#e77917" data-fill-palette-color="accent"></path></g></svg></g></svg></g></svg></g></svg></g><g transform="matrix(1,0,0,1,430.2836318492235,0)"><svg viewBox="0 0 86.68362742076015 97.39674461416801" height="97.39674461416801" width="86.68362742076015"><g><svg xmlns="http://www.w3.org/2000/svg" data-name="Layer 1" viewBox="7.113448580097254 1.7716600581445134 85.85734226072488 96.46833994185549" x="0" y="0" height="97.39674461416801" width="86.68362742076015" class="icon-icon-0" data-fill-palette-color="accent" id="icon-0"><path d="M81.39 64c-0.08-0.34-0.15-0.69-0.26-1A10 10 0 0 0 79 59.24a9.85 9.85 0 0 0-5.56-3.09c0.16-1.75 0.31-3.77 0.44-6l0.24-4.77 0.1-2.58a13.4 13.4 0 0 0 0-1.6l-0.12-0.88-0.2-0.87a10 10 0 0 0-8.14-7.16 29.14 29.14 0 0 0-3.35-0.15c-4-0.06-8.22-0.09-12.39-0.09s-8.35 0-12.39 0.08a29.7 29.7 0 0 0-3.35 0.15 10 10 0 0 0-8.17 7.15 10.61 10.61 0 0 0-0.32 1.76 13.16 13.16 0 0 0 0 1.6l0.1 2.58 0.24 4.77c0.12 2.08 0.26 4 0.4 5.62a10.37 10.37 0 0 0-4 1.6A10.48 10.48 0 0 0 17.91 65c0 0.36 0 0.8 0 1.1v2.54l0 3.36 0 3.34V77c0 0.32 0 0.72 0.06 1.08s0.11 0.73 0.17 1.09a10.33 10.33 0 0 0 5 6.78 10.15 10.15 0 0 0 4 1.28c0.35 0 0.69 0 1 0.05H29l1.56 0 5.92-0.09c-2.69 2.69-5.36 7-5.51 9.43a6.32 6.32 0 0 0 1.14 0.94 5.25 5.25 0 0 0 1.08 0.68c3-1.18 7.77-7.55 8.43-11.13 6.1-0.11 11.75-0.25 16.76-0.41C58.7 90.17 63.7 97 66.84 98.23a6.32 6.32 0 0 0 1.24-0.8h0a5.24 5.24 0 0 0 1-0.82c-0.16-2.66-3.3-7.48-6.2-10.08 2.9-0.11 5.52-0.22 7.84-0.35a1.3 1.3 0 0 0 1-1.47 1.25 1.25 0 0 0-1-1.28c-9.27-0.5-23.58-0.86-40.15-1.09l-1.56 0h-0.76l-0.53 0a5.14 5.14 0 0 1-2-0.7 5.21 5.21 0 0 1-2.42-3.43l-0.07-0.54 0-0.57V75.37l0-3.34 0-3.36V66.13l0-0.59a5 5 0 0 1 9.6-1.32 4.41 4.41 0 0 1 0.28 1.06 7.62 7.62 0 0 1 0.07 1.31q0 1.72 0 3.44h0A2.73 2.73 0 0 0 36 72.77c9.71 0 19.14-0.08 28-0.18h0.06A2.53 2.53 0 0 0 66.59 70l0-4a5.34 5.34 0 0 1 9.19-3.77 5.63 5.63 0 0 1 1.28 2l0.17 0.57 0.11 0.58 0 0.61 0 0.81 0.16 6.17 0.09 2.89c0 0.45 0 1 0 1.34a6.88 6.88 0 0 1-0.07 1 6.22 6.22 0 0 1-1.83 3.45 6.35 6.35 0 0 1-3.16 1.64 1.42 1.42 0 0 0-0.83 1.5 1.14 1.14 0 0 0 1.18 1.15 9 9 0 0 0 4.83-1.93A9.34 9.34 0 0 0 81 79a10.21 10.21 0 0 0 0.23-1.65c0-0.56 0-1 0.06-1.45l0.09-2.89 0.16-6.17 0-0.81 0-1C81.49 64.72 81.44 64.37 81.39 64ZM66.18 57.55a10.35 10.35 0 0 0-3.39 3.6 10.46 10.46 0 0 0-1.28 4.91l0 1.38c-7.31-0.07-14.94-0.12-22.77-0.14v-0.71a13.22 13.22 0 0 0-0.12-2.12 9.85 9.85 0 0 0-0.6-2.26A10.49 10.49 0 0 0 31.4 56a10.12 10.12 0 0 0-1.75-0.37q0.22-2.46 0.4-5.55l0.24-4.77 0.1-2.58a8.24 8.24 0 0 1 0.09-1.05 6.18 6.18 0 0 1 0.23-0.9A5.22 5.22 0 0 1 33.13 38 5 5 0 0 1 35 37.45c0.5-0.06 1.67 0 2.65 0 4 0.06 8.22 0.08 12.39 0.08s8.35 0 12.39-0.09c1 0 2.15-0.06 2.65 0a5 5 0 0 1 1.84 0.57 5.23 5.23 0 0 1 2.43 2.82l0.14 0.45 0.09 0.46a8.57 8.57 0 0 1 0.09 1.06l0.1 2.58L70 50.14c0.13 2.2 0.27 4.18 0.43 5.9A10.25 10.25 0 0 0 66.18 57.55Z" fill="#e77917" data-fill-palette-color="accent"></path><path d="M75.93 22.49c0.13-5.39 0.24-11.29 0.31-18h0A2.56 2.56 0 0 0 73.71 1.9h-0.05L63.57 1.8h0a2.66 2.66 0 0 0-2.68 2.65v0l0 5.21L51.7 2.37h0a2.7 2.7 0 0 0-3.39 0c-16.94 13.85-32.77 27.23-41 34.9-0.35 0.33-0.22 1.08 0.29 1.65s1.08 0.73 1.43 0.48C17.91 33.16 33.53 21.1 50 8l11.85 9.56h0a2.74 2.74 0 0 0 4.45-2.14l0-8.24 4.82 0c0.08 6 0.18 11.44 0.31 16.39v0.12a2.14 2.14 0 0 0 0.83 1.63c8 6.26 14.29 11 18.82 14.14 0.38 0.27 1.07 0 1.52-0.62s0.47-1.17 0.17-1.46Q86.91 31.86 75.93 22.49Z" fill="#e77917" data-fill-palette-color="accent"></path></svg></g></svg></g></svg></g><defs></defs></svg><rect width="395.52" height="74.51605442904385" fill="none" stroke="none" visibility="hidden"></rect></g></svg></g></svg>